<svg width="21" height="21" viewBox="0 0 21 21" fill="none" xmlns="http://www.w3.org/2000/svg">
<path d="M10.2 0.57373C15.7229 0.57373 20.2 5.05073 20.2 10.5737C20.2 16.0967 15.7229 20.5737 10.2 20.5737C8.49792 20.5761 6.82367 20.1423 5.33695 19.3137L5.03195 19.1357L1.99995 20.0277C1.83495 20.0764 1.66027 20.082 1.49247 20.0442C1.32466 20.0064 1.16929 19.9264 1.04109 19.8117C0.912885 19.697 0.816095 19.5515 0.759894 19.3889C0.703694 19.2263 0.689945 19.0521 0.719951 18.8827L0.745951 18.7737L1.63795 15.7417C0.695005 14.183 0.197631 12.3955 0.199951 10.5737C0.199951 5.05073 4.67695 0.57373 10.2 0.57373ZM10.2 2.57373C8.76758 2.57347 7.36141 2.95779 6.12828 3.68655C4.89515 4.4153 3.88031 5.46177 3.18971 6.71667C2.49912 7.97157 2.15812 9.38887 2.20231 10.8206C2.2465 12.2522 2.67427 13.6458 3.44095 14.8557C3.63895 15.1677 3.72395 15.5517 3.65695 15.9327L3.61795 16.0957L3.17695 17.5967L4.67795 17.1557C5.11095 17.0277 5.56095 17.1057 5.91795 17.3327C6.96628 17.9965 8.15464 18.4074 9.3891 18.5328C10.6236 18.6582 11.8703 18.4947 13.0307 18.0553C14.1911 17.6159 15.2333 16.9126 16.0751 16.001C16.9169 15.0894 17.5351 13.9945 17.8808 12.8028C18.2266 11.6112 18.2904 10.3554 18.0672 9.13484C17.844 7.91426 17.34 6.76233 16.5949 5.77011C15.8499 4.77788 14.8843 3.97256 13.7744 3.41781C12.6645 2.86306 11.4408 2.57409 10.2 2.57373ZM7.30195 5.75773C7.41277 5.71027 7.53397 5.69224 7.6538 5.70538C7.77364 5.71852 7.88805 5.76239 7.98595 5.83273C8.48995 6.20073 8.88995 6.69473 9.23395 7.17673L9.56095 7.65073L9.71395 7.87573C9.80256 8.00469 9.84608 8.1593 9.83776 8.31555C9.82944 8.47179 9.76975 8.62091 9.66795 8.73973L9.59295 8.81573L8.66895 9.50173C8.62498 9.53433 8.59408 9.58154 8.5818 9.63488C8.56952 9.68822 8.57667 9.74419 8.60195 9.79273C8.81195 10.1727 9.18295 10.7397 9.60895 11.1657C10.036 11.5917 10.629 11.9877 11.035 12.2207C11.123 12.2707 11.229 12.2547 11.301 12.1897L11.339 12.1447L11.94 11.2297C12.0501 11.0825 12.2131 10.9838 12.3946 10.9544C12.576 10.9249 12.7619 10.967 12.913 11.0717L13.4559 11.4507C13.9959 11.8357 14.515 12.2497 14.926 12.7747C15.002 12.8734 15.0503 12.9906 15.066 13.1141C15.0816 13.2377 15.064 13.3632 15.015 13.4777C14.619 14.4017 13.6159 15.1887 12.5739 15.1507L12.415 15.1407L12.224 15.1227L12.116 15.1087L11.878 15.0687C10.954 14.8947 9.47295 14.3707 7.93795 12.8367C6.40395 11.3017 5.87995 9.82073 5.70595 8.89673L5.66595 8.65873L5.64095 8.45073L5.62795 8.27573L5.62395 8.20073C5.58595 7.15673 6.37695 6.15373 7.30195 5.75773Z" fill="#358BB9"/>
</svg>
